<?xml version="1.0" encoding="UTF-8"?>
<svg width="128px" height="128px" viewBox="0 0 128 128" version="1.1" xmlns="http://www.w3.org/2000/svg" xmlns:xlink="http://www.w3.org/1999/xlink">
    <!-- Generator: Sketch 59.1 (86144) - https://sketch.com -->
    <title>review-icon-128x128</title>
    <desc>Created with Sketch.</desc>
    <g id="review-icon-128x128" stroke="none" stroke-width="1" fill="none" fill-rule="evenodd">
        <g id="Group" transform="translate(13.000000, 15.000000)">
            <g id="P-2" transform="translate(34.500000, 0.000000)" fill-rule="nonzero">
                <path d="M0,96.893617 L27.1570212,96.893617 L27.1570212,64.505401 L36.0579726,64.505401 C55.4607744,64.505401 68,51.3603928 68,32.7947627 C68,23.0376432 64.5682119,14.7711948 58.4965869,8.94402619 C52.6889456,3.25237316 44.2414672,0 32.7581764,0 L0,0 L0,96.893617 Z" id="P" fill="#FDDE1B"></path>
                <polygon id="Triangle" fill="#C6DDF4" points="34 64.4245976 68 99 34 99"></polygon>
            </g>
            <path d="M0.5,31 L68.5,31 L68.5,99 L0.5,99 L0.5,99 L34.5,99 L34.5,65 L0.5,65 L0.5,31 Z" id="Combined-Shape" fill="#017A87"></path>
        </g>
    </g>
</svg>